<svg width="399" height="60" viewBox="0 0 399 60" fill="none" xmlns="http://www.w3.org/2000/svg">
<path d="M0.722 45L17.106 0.199997H26.322L42.706 45H34.002L30.418 34.632H12.946L9.298 45H0.722ZM15.186 28.232H28.178L21.65 9.608L15.186 28.232ZM61.405 45.768C58.589 45.768 56.1143 45.32 53.981 44.424C51.8477 43.4853 50.141 42.2053 48.861 40.584C47.581 38.9627 46.813 37.0853 46.557 34.952H54.813C55.069 36.1893 55.7517 37.256 56.861 38.152C58.013 39.0053 59.485 39.432 61.277 39.432C63.069 39.432 64.3703 39.0693 65.181 38.344C66.0343 37.6187 66.461 36.7867 66.461 35.848C66.461 34.4827 65.8637 33.5653 64.669 33.096C63.4743 32.584 61.8103 32.0933 59.677 31.624C58.3117 31.3253 56.925 30.9627 55.517 30.536C54.109 30.1093 52.8077 29.576 51.613 28.936C50.461 28.2533 49.5223 27.4 48.797 26.376C48.0717 25.3093 47.709 24.008 47.709 22.472C47.709 19.656 48.8183 17.288 51.037 15.368C53.2983 13.448 56.4557 12.488 60.509 12.488C64.2637 12.488 67.2503 13.3627 69.469 15.112C71.7303 16.8613 73.0743 19.272 73.501 22.344H65.757C65.2877 19.9973 63.517 18.824 60.445 18.824C58.909 18.824 57.7143 19.1227 56.861 19.72C56.0503 20.3173 55.645 21.064 55.645 21.96C55.645 22.8987 56.2637 23.6453 57.501 24.2C58.7383 24.7547 60.381 25.2667 62.429 25.736C64.6477 26.248 66.6743 26.824 68.509 27.464C70.3863 28.0613 71.8797 28.9787 72.989 30.216C74.0983 31.4107 74.653 33.1387 74.653 35.4C74.6957 37.3627 74.1837 39.1333 73.117 40.712C72.0503 42.2907 70.5143 43.528 68.509 44.424C66.5037 45.32 64.1357 45.768 61.405 45.768ZM95.03 45.768C92.214 45.768 89.7393 45.32 87.606 44.424C85.4727 43.4853 83.766 42.2053 82.486 40.584C81.206 38.9627 80.438 37.0853 80.182 34.952H88.438C88.694 36.1893 89.3767 37.256 90.486 38.152C91.638 39.0053 93.11 39.432 94.902 39.432C96.694 39.432 97.9953 39.0693 98.806 38.344C99.6593 37.6187 100.086 36.7867 100.086 35.848C100.086 34.4827 99.4887 33.5653 98.294 33.096C97.0993 32.584 95.4353 32.0933 93.302 31.624C91.9367 31.3253 90.55 30.9627 89.142 30.536C87.734 30.1093 86.4327 29.576 85.238 28.936C84.086 28.2533 83.1473 27.4 82.422 26.376C81.6967 25.3093 81.334 24.008 81.334 22.472C81.334 19.656 82.4433 17.288 84.662 15.368C86.9233 13.448 90.0807 12.488 94.134 12.488C97.8887 12.488 100.875 13.3627 103.094 15.112C105.355 16.8613 106.699 19.272 107.126 22.344H99.382C98.9127 19.9973 97.142 18.824 94.07 18.824C92.534 18.824 91.3393 19.1227 90.486 19.72C89.6753 20.3173 89.27 21.064 89.27 21.96C89.27 22.8987 89.8887 23.6453 91.126 24.2C92.3633 24.7547 94.006 25.2667 96.054 25.736C98.2727 26.248 100.299 26.824 102.134 27.464C104.011 28.0613 105.505 28.9787 106.614 30.216C107.723 31.4107 108.278 33.1387 108.278 35.4C108.321 37.3627 107.809 39.1333 106.742 40.712C105.675 42.2907 104.139 43.528 102.134 44.424C100.129 45.32 97.7607 45.768 95.03 45.768ZM130.959 45.768C127.759 45.768 124.922 45.0853 122.447 43.72C119.972 42.3547 118.031 40.4347 116.623 37.96C115.215 35.4853 114.511 32.6267 114.511 29.384C114.511 26.0987 115.194 23.176 116.559 20.616C117.967 18.056 119.887 16.072 122.319 14.664C124.794 13.2133 127.695 12.488 131.023 12.488C134.138 12.488 136.89 13.1707 139.279 14.536C141.668 15.9013 143.524 17.7787 144.847 20.168C146.212 22.5147 146.895 25.1387 146.895 28.04C146.895 28.5093 146.874 29 146.831 29.512C146.831 30.024 146.81 30.5573 146.767 31.112H122.639C122.81 33.5867 123.663 35.528 125.199 36.936C126.778 38.344 128.676 39.048 130.895 39.048C132.559 39.048 133.946 38.6853 135.055 37.96C136.207 37.192 137.06 36.2107 137.615 35.016H145.935C145.338 37.0213 144.335 38.856 142.927 40.52C141.562 42.1413 139.855 43.4213 137.807 44.36C135.802 45.2987 133.519 45.768 130.959 45.768ZM131.023 19.144C129.018 19.144 127.247 19.72 125.711 20.872C124.175 21.9813 123.194 23.688 122.767 25.992H138.575C138.447 23.9013 137.679 22.2373 136.271 21C134.863 19.7627 133.114 19.144 131.023 19.144ZM167.367 45C164.039 45 161.372 44.1893 159.367 42.568C157.361 40.9467 156.359 38.0667 156.359 33.928V20.104H150.919V13.256H156.359L157.319 4.744H164.551V13.256H173.127V20.104H164.551V33.992C164.551 35.528 164.871 36.5947 165.51 37.192C166.193 37.7467 167.345 38.024 168.967 38.024H172.935V45H167.367ZM193.28 45.768C190.464 45.768 187.989 45.32 185.856 44.424C183.723 43.4853 182.016 42.2053 180.736 40.584C179.456 38.9627 178.688 37.0853 178.432 34.952H186.688C186.944 36.1893 187.627 37.256 188.736 38.152C189.888 39.0053 191.36 39.432 193.152 39.432C194.944 39.432 196.245 39.0693 197.056 38.344C197.909 37.6187 198.336 36.7867 198.336 35.848C198.336 34.4827 197.739 33.5653 196.544 33.096C195.349 32.584 193.685 32.0933 191.552 31.624C190.187 31.3253 188.8 30.9627 187.392 30.536C185.984 30.1093 184.683 29.576 183.488 28.936C182.336 28.2533 181.397 27.4 180.672 26.376C179.947 25.3093 179.584 24.008 179.584 22.472C179.584 19.656 180.693 17.288 182.912 15.368C185.173 13.448 188.331 12.488 192.384 12.488C196.139 12.488 199.125 13.3627 201.344 15.112C203.605 16.8613 204.949 19.272 205.376 22.344H197.632C197.163 19.9973 195.392 18.824 192.32 18.824C190.784 18.824 189.589 19.1227 188.736 19.72C187.925 20.3173 187.52 21.064 187.52 21.96C187.52 22.8987 188.139 23.6453 189.376 24.2C190.613 24.7547 192.256 25.2667 194.304 25.736C196.523 26.248 198.549 26.824 200.384 27.464C202.261 28.0613 203.755 28.9787 204.864 30.216C205.973 31.4107 206.528 33.1387 206.528 35.4C206.571 37.3627 206.059 39.1333 204.992 40.712C203.925 42.2907 202.389 43.528 200.384 44.424C198.379 45.32 196.011 45.768 193.28 45.768ZM229.227 45V0.199997H245.803C249.387 0.199997 252.352 0.79733 254.699 1.992C257.046 3.18666 258.795 4.82933 259.947 6.92C261.099 9.01067 261.675 11.3573 261.675 13.96C261.675 16.4347 261.12 18.7173 260.011 20.808C258.902 22.856 257.174 24.52 254.827 25.8C252.48 27.0373 249.472 27.656 245.803 27.656H237.419V45H229.227ZM237.419 21H245.291C248.15 21 250.198 20.3813 251.435 19.144C252.715 17.864 253.355 16.136 253.355 13.96C253.355 11.7413 252.715 10.0133 251.435 8.776C250.198 7.496 248.15 6.856 245.291 6.856H237.419V21ZM267.91 45V13.256H275.206L275.974 19.208C277.126 17.16 278.683 15.5387 280.646 14.344C282.651 13.1067 284.998 12.488 287.686 12.488V21.128H285.382C283.59 21.128 281.99 21.4053 280.582 21.96C279.174 22.5147 278.065 23.4747 277.254 24.84C276.486 26.2053 276.102 28.104 276.102 30.536V45H267.91ZM307.955 45.768C304.883 45.768 302.109 45.064 299.635 43.656C297.203 42.248 295.261 40.3067 293.811 37.832C292.403 35.3147 291.699 32.4133 291.699 29.128C291.699 25.8427 292.424 22.9627 293.875 20.488C295.325 17.9707 297.267 16.008 299.699 14.6C302.173 13.192 304.947 12.488 308.019 12.488C311.048 12.488 313.779 13.192 316.211 14.6C318.685 16.008 320.627 17.9707 322.035 20.488C323.485 22.9627 324.211 25.8427 324.211 29.128C324.211 32.4133 323.485 35.3147 322.035 37.832C320.627 40.3067 318.685 42.248 316.211 43.656C313.736 45.064 310.984 45.768 307.955 45.768ZM307.955 38.664C310.088 38.664 311.944 37.8747 313.523 36.296C315.101 34.6747 315.891 32.2853 315.891 29.128C315.891 25.9707 315.101 23.6027 313.523 22.024C311.944 20.4027 310.109 19.592 308.019 19.592C305.843 19.592 303.965 20.4027 302.387 22.024C300.851 23.6027 300.083 25.9707 300.083 29.128C300.083 32.2853 300.851 34.6747 302.387 36.296C303.965 37.8747 305.821 38.664 307.955 38.664ZM326.84 45L338.36 29.128L326.84 13.256H335.608L343.672 24.52L351.672 13.256H360.504L348.92 29.128L360.504 45H351.672L343.672 33.736L335.608 45H326.84ZM369.691 59.08L377.051 42.888H375.131L362.779 13.256H371.675L380.571 35.592L389.851 13.256H398.555L378.395 59.08H369.691Z" fill="url(#paint0_linear_3_2)"/>
<defs>
<linearGradient id="paint0_linear_3_2" x1="-1" y1="23" x2="400" y2="23" gradientUnits="userSpaceOnUse">
<stop stop-color="#DB00FF"/>
<stop offset="0.448715" stop-color="#FF4980"/>
<stop offset="1" stop-color="#FF4D00"/>
</linearGradient>
</defs>
</svg>
